<svg width="160" height="37" viewBox="0 0 160 37" fill="none" xmlns="http://www.w3.org/2000/svg">
<path d="M153.642 29.5736C154.074 28.9038 154.323 28.1691 154.388 27.3696C154.452 26.5701 154.485 25.7814 154.485 25.0035C153.858 25.803 153.091 26.3648 152.183 26.6889C151.276 27.013 150.293 27.1751 149.234 27.1751C148.002 27.1751 146.933 26.9914 146.025 26.6241C145.139 26.2567 144.437 25.6949 143.918 24.9386C143.4 24.2472 143.043 23.4369 142.849 22.5077C142.654 21.5569 142.557 20.5306 142.557 19.4285V9.83447H147.127V18.8775C147.127 19.4609 147.17 20.0336 147.257 20.5954C147.365 21.1356 147.581 21.5894 147.905 21.9567C148.424 22.7346 149.364 23.1235 150.725 23.1235C151.373 23.1235 151.978 22.9939 152.54 22.7346C153.102 22.4537 153.545 22.0215 153.869 21.4381C154.15 20.9411 154.323 20.4225 154.388 19.8823C154.452 19.3205 154.485 18.7155 154.485 18.0672V9.83447H159.087V23.869C159.087 24.6469 159.077 25.4464 159.055 26.2675C159.055 27.0671 158.99 27.8558 158.86 28.6337C158.752 29.4115 158.547 30.1678 158.245 30.9025C157.942 31.6372 157.521 32.3179 156.981 32.9445C156.224 33.8088 155.23 34.5003 153.999 35.0189C152.789 35.5375 151.33 35.786 149.623 35.7644C148.37 35.786 147.127 35.6131 145.895 35.2458C144.664 34.9 143.529 34.3923 142.492 33.7224L143.951 29.8329C144.513 30.2435 145.258 30.6216 146.187 30.9673C147.138 31.3131 148.251 31.4859 149.526 31.4859C150.563 31.4859 151.406 31.3131 152.054 30.9673C152.724 30.6432 153.253 30.1786 153.642 29.5736Z" fill="#E4E7EC"/>
<path d="M132.562 23.1234C133.427 23.1234 134.107 22.9181 134.604 22.5076C135.123 22.097 135.436 21.6324 135.544 21.1138H140.341C140.19 22.2158 139.877 23.145 139.401 23.9013C138.926 24.6576 138.332 25.2842 137.619 25.7812C136.927 26.2782 136.139 26.6347 135.253 26.8508C134.367 27.0669 133.448 27.1749 132.498 27.1749C131.071 27.1749 129.829 26.9805 128.77 26.5915C127.733 26.181 126.869 25.5975 126.177 24.8413C125.486 24.0634 124.956 23.1342 124.589 22.0538C124.243 20.9518 124.07 19.7201 124.07 18.3588C124.07 17.0407 124.265 15.8306 124.654 14.7286C125.043 13.6266 125.594 12.6866 126.307 11.9087C127.041 11.1308 127.938 10.5366 128.997 10.126C130.056 9.69387 131.266 9.47778 132.627 9.47778C133.621 9.47778 134.55 9.59663 135.415 9.83432C136.301 10.072 137.078 10.4394 137.748 10.9363C138.44 11.4333 139.002 12.0708 139.434 12.8487C139.888 13.605 140.19 14.5125 140.341 15.5713H135.544C135.436 15.0527 135.112 14.5881 134.572 14.1776C134.053 13.767 133.373 13.5617 132.53 13.5617C131.817 13.5617 131.201 13.6914 130.682 13.9507C130.164 14.21 129.753 14.5665 129.451 15.0203C129.148 15.4741 128.932 15.9927 128.803 16.5761C128.673 17.1595 128.608 17.7754 128.608 18.4236C128.608 19.1151 128.684 19.7525 128.835 20.3359C128.986 20.8977 129.213 21.3947 129.516 21.8269C129.818 22.2375 130.218 22.5616 130.715 22.7993C131.233 23.0154 131.849 23.1234 132.562 23.1234Z" fill="#E4E7EC"/>
<path d="M110.153 12.0062C111.536 10.3424 113.243 9.49963 115.274 9.47802C116.377 9.45642 117.349 9.64009 118.192 10.029C119.034 10.3964 119.715 10.9042 120.234 11.5524C120.86 12.3087 121.292 13.1946 121.53 14.2102C121.768 15.2042 121.887 16.317 121.887 17.5487V26.9159H117.284V17.9052C117.284 17.3002 117.219 16.7276 117.09 16.1874C116.982 15.6256 116.787 15.1502 116.506 14.7612C116.225 14.3507 115.847 14.0482 115.372 13.8537C114.918 13.6592 114.399 13.562 113.816 13.562C113.081 13.5836 112.455 13.7457 111.936 14.0482C111.439 14.3507 111.061 14.7396 110.802 15.215C110.542 15.6688 110.359 16.1874 110.251 16.7708C110.164 17.3326 110.121 17.9052 110.121 18.4887V26.9159H105.551V9.83456H109.926L110.153 12.0062Z" fill="#E4E7EC"/>
<path d="M95.2721 23.4475C95.9204 23.4475 96.4714 23.3503 96.9252 23.1558C97.4005 22.9397 97.7895 22.594 98.092 22.1186H102.889C102.651 23.0046 102.284 23.7716 101.787 24.4199C101.312 25.0681 100.728 25.5975 100.037 26.0081C99.3669 26.4187 98.6214 26.7212 97.8003 26.9156C96.9792 27.0885 96.1149 27.1749 95.2073 27.1749C92.4415 27.1749 90.3454 26.397 88.9193 24.8413C87.5148 23.2855 86.8125 21.103 86.8125 18.294C86.8125 17.0191 86.9962 15.8414 87.3635 14.761C87.7525 13.6806 88.2927 12.7514 88.9841 11.9735C89.6756 11.174 90.5291 10.5582 91.5447 10.126C92.5819 9.69387 93.7596 9.47778 95.0777 9.47778C96.6118 9.47778 97.9408 9.74789 99.0644 10.2881C100.188 10.8283 101.074 11.5738 101.722 12.5245C102.392 13.4537 102.835 14.5449 103.051 15.7982C103.289 17.0515 103.289 18.3912 103.051 19.8173H91.3826C91.4691 20.8329 91.8256 21.6973 92.4523 22.4103C93.0789 23.1018 94.0189 23.4475 95.2721 23.4475ZM98.8051 16.6733C98.8051 16.1331 98.7078 15.6577 98.5134 15.2472C98.3189 14.815 98.0596 14.4693 97.7355 14.21C97.4114 13.9291 97.0224 13.7238 96.5686 13.5942C96.1365 13.4645 95.6827 13.3997 95.2073 13.3997C94.0621 13.4213 93.1653 13.7346 92.5171 14.3396C91.8904 14.9231 91.5231 15.701 91.4151 16.6733H98.8051Z" fill="#E4E7EC"/>
<path d="M79.9184 25.1655C79.2702 25.9002 78.4923 26.4188 77.5847 26.7213C76.6772 27.0239 75.694 27.1751 74.6352 27.1751C73.5764 27.1751 72.5392 27.0131 71.5236 26.6889C70.5296 26.3432 69.6653 25.7922 68.9306 25.0359C68.1095 24.1716 67.5369 23.1776 67.2127 22.054C66.8886 20.9303 66.7266 19.7743 66.7266 18.5858C66.7266 15.7768 67.5045 13.5295 69.0603 11.8441C69.7301 11.1094 70.5944 10.5368 71.6532 10.1262C72.7337 9.71565 73.8897 9.52117 75.1214 9.54278C75.9209 9.49957 76.7852 9.64002 77.7144 9.96414C78.6435 10.2883 79.443 10.8285 80.1129 11.5848L80.5991 9.83449H84.5534V25.8462C84.5534 26.5377 84.5102 27.2183 84.4237 27.8882C84.3589 28.5797 84.2401 29.2387 84.0672 29.8653C83.8943 30.5136 83.635 31.1294 83.2893 31.7128C82.9003 32.4259 82.425 33.031 81.8631 33.5279C81.3229 34.0249 80.7179 34.4355 80.0481 34.7596C79.3782 35.1053 78.6651 35.3538 77.9088 35.5051C77.1525 35.6564 76.3855 35.732 75.6076 35.732C74.6136 35.732 73.6628 35.6131 72.7553 35.3754C71.8477 35.1594 71.0158 34.792 70.2595 34.2734C69.5248 33.7764 68.909 33.139 68.412 32.3611C67.9366 31.5832 67.6233 30.654 67.472 29.5736H72.3339C72.4203 30.0922 72.7661 30.5568 73.3711 30.9674C73.9761 31.3779 74.7108 31.5832 75.5751 31.5832C76.5043 31.5832 77.2606 31.3995 77.844 31.0322C78.449 30.6648 78.9028 30.1787 79.2053 29.5736C79.5078 28.9686 79.7023 28.2771 79.7887 27.4992C79.8752 26.7213 79.9184 25.9434 79.9184 25.1655ZM75.6724 23.1236C76.3855 23.1236 77.0121 22.9939 77.5523 22.7346C78.1141 22.4753 78.5679 22.1296 78.9136 21.6974C79.2593 21.2436 79.5186 20.7251 79.6915 20.1416C79.8644 19.5366 79.9508 18.8992 79.9508 18.2293C79.9508 16.8896 79.5727 15.7876 78.8164 14.9232C78.0817 14.0373 77.0229 13.5835 75.64 13.5619C74.9269 13.5619 74.2895 13.6916 73.7276 13.9509C73.1874 14.2102 72.7337 14.5559 72.3663 14.9881C72.0206 15.4202 71.7613 15.928 71.5884 16.5114C71.4156 17.0949 71.3291 17.7215 71.3291 18.3914C71.3291 19.1044 71.4156 19.7527 71.5884 20.3361C71.7829 20.8979 72.0638 21.3949 72.4311 21.8271C72.7985 22.2376 73.2523 22.5618 73.7925 22.7994C74.3327 23.0155 74.9593 23.1236 75.6724 23.1236Z" fill="#E4E7EC"/>
<path d="M60.2057 24.8088C59.5574 25.6732 58.7687 26.289 57.8396 26.6563C56.9104 27.0237 55.83 27.1965 54.5983 27.1749C53.0209 27.1317 51.7028 26.6888 50.644 25.846C50.0822 25.3707 49.6392 24.8088 49.3151 24.1606C49.0126 23.4907 48.8613 22.702 48.8613 21.7945C48.8829 20.8653 49.0882 20.0442 49.4772 19.3311C49.8877 18.5965 50.5036 17.9914 51.3247 17.5161C52.0161 17.1487 52.794 16.8894 53.6584 16.7382C54.5443 16.5869 55.5059 16.5113 56.5431 16.5113H60.0436C60.1084 15.4525 59.8599 14.6638 59.2981 14.1452C58.7579 13.605 57.9908 13.3241 56.9968 13.3024C56.6727 13.3024 56.3378 13.3241 55.9921 13.3673C55.6463 13.4105 55.3222 13.4969 55.0197 13.6266C54.7388 13.7562 54.4903 13.9399 54.2742 14.1776C54.0797 14.3937 53.9501 14.6638 53.8852 14.9879H49.1855C49.2935 13.9507 49.5744 13.0864 50.0282 12.3949C50.5036 11.6818 51.0978 11.1092 51.8109 10.677C52.5239 10.2449 53.3126 9.94236 54.177 9.76949C55.0629 9.57502 55.9704 9.47778 56.8996 9.47778C57.4182 9.47778 57.9476 9.5102 58.4878 9.57502C59.028 9.61824 59.5574 9.72628 60.076 9.89914C60.5946 10.0504 61.0808 10.2665 61.5346 10.5474C62.0099 10.8067 62.4529 11.1524 62.8635 11.5846C63.5982 12.4273 64.0519 13.3997 64.2248 14.5017C64.4193 15.5821 64.5057 16.6409 64.4841 17.6781V26.9156H60.3029L60.2057 24.8088ZM60.0436 19.3636H56.7051C56.381 19.3636 56.0137 19.396 55.6031 19.4608C55.1925 19.5256 54.836 19.6445 54.5335 19.8173C54.231 19.9902 53.9717 20.2171 53.7556 20.498C53.5611 20.7789 53.4639 21.1246 53.4639 21.5352C53.4639 21.8809 53.5287 22.1834 53.6584 22.4427C53.8096 22.702 53.9933 22.9181 54.2094 23.091C54.4471 23.2638 54.728 23.4043 55.0521 23.5123C55.3762 23.5988 55.7003 23.642 56.0245 23.642C56.6511 23.6636 57.2345 23.5556 57.7747 23.3179C58.3365 23.0802 58.8227 22.7453 59.2333 22.3131C59.4926 21.9674 59.6871 21.5784 59.8167 21.1462C59.968 20.6925 60.0436 20.0982 60.0436 19.3636Z" fill="#E4E7EC"/>
<path fill-rule="evenodd" clip-rule="evenodd" d="M36.4492 19.6944C36.2661 22.8943 35.2315 25.9942 33.4439 28.6695C31.4653 31.6307 28.653 33.9387 25.3627 35.3016C22.0723 36.6645 18.4518 37.0211 14.9588 36.3263C11.4658 35.6315 8.25725 33.9165 5.73894 31.3982C3.22064 28.8799 1.50565 25.6714 0.810849 22.1784C0.11605 18.6854 0.472646 15.0648 1.83554 11.7745C3.19844 8.48419 5.50643 5.6719 8.46764 3.69328C11.143 1.90569 14.2429 0.871104 17.4428 0.687988V9.72099C16.0263 9.88394 14.6634 10.3817 13.4697 11.1794C11.9891 12.1687 10.8351 13.5748 10.1536 15.22C9.47219 16.8651 9.29389 18.6754 9.64129 20.4219C9.98869 22.1684 10.8462 23.7727 12.1053 25.0318C13.3645 26.291 14.9687 27.1485 16.7152 27.4959C18.4617 27.8433 20.272 27.665 21.9172 26.9835C23.5624 26.3021 24.9685 25.1481 25.9578 23.6675C26.7554 22.4738 27.2532 21.1109 27.4162 19.6944H36.4492Z" fill="#E4E7EC"/>
<path fill-rule="evenodd" clip-rule="evenodd" d="M27.4699 0.658447H20.1035V9.66187H27.4699V17.028H36.4733V9.66187H36.4734V0.658447H34.8263H27.4699Z" fill="#E4E7EC"/>
</svg>
