<svg width="244" height="38" viewBox="0 0 244 38" fill="none" xmlns="http://www.w3.org/2000/svg">
<path d="M229.446 13.9015C230.829 12.2376 232.536 11.3949 234.567 11.3733C235.669 11.3517 236.642 11.5354 237.485 11.9243C238.327 12.2916 239.008 12.7994 239.527 13.4477C240.153 14.204 240.585 15.0899 240.823 16.1055C241.061 17.0995 241.18 18.2123 241.18 19.444V28.8111H236.577V19.8005C236.577 19.1955 236.512 18.6229 236.383 18.0827C236.275 17.5208 236.08 17.0455 235.799 16.6565C235.518 16.2459 235.14 15.9434 234.665 15.749C234.211 15.5545 233.692 15.4572 233.109 15.4572C232.374 15.4789 231.748 15.6409 231.229 15.9434C230.732 16.246 230.354 16.6349 230.095 17.1103C229.835 17.5641 229.652 18.0827 229.544 18.6661C229.457 19.2279 229.414 19.8005 229.414 20.3839V28.8111H224.844V11.7298H229.219L229.446 13.9015Z" fill="#E4E7EC"/>
<path d="M213.256 29.0704C210.491 29.0704 208.362 28.2926 206.871 26.7368C205.38 25.1594 204.635 22.9769 204.635 20.1895C204.635 18.8497 204.829 17.6397 205.218 16.5593C205.629 15.4573 206.191 14.5173 206.904 13.7394C207.638 12.9615 208.535 12.3781 209.594 11.9891C210.674 11.5786 211.895 11.3733 213.256 11.3733C214.596 11.3733 215.795 11.5786 216.854 11.9891C217.935 12.3781 218.842 12.9615 219.577 13.7394C220.333 14.5173 220.906 15.4573 221.295 16.5593C221.705 17.6397 221.911 18.8497 221.911 20.1895C221.911 22.9985 221.154 25.181 219.642 26.7368C218.151 28.2926 216.022 29.0704 213.256 29.0704ZM213.256 15.4573C211.852 15.4573 210.815 15.911 210.145 16.8186C209.475 17.7261 209.14 18.8606 209.14 20.2219C209.14 21.6048 209.475 22.75 210.145 23.6576C210.815 24.5651 211.852 25.0189 213.256 25.0189C214.661 25.0189 215.687 24.5651 216.336 23.6576C216.984 22.75 217.308 21.6048 217.308 20.2219C217.308 18.8606 216.984 17.7261 216.336 16.8186C215.687 15.911 214.661 15.4573 213.256 15.4573Z" fill="#E4E7EC"/>
<path d="M199.138 3.78882C199.981 3.78882 200.662 4.03731 201.18 4.5343C201.699 5.03129 201.958 5.69034 201.958 6.51146C201.958 7.37579 201.699 8.05645 201.18 8.55344C200.662 9.02882 199.981 9.26651 199.138 9.26651C198.317 9.26651 197.636 9.02882 197.096 8.55344C196.578 8.05645 196.318 7.37579 196.318 6.51146C196.318 5.69034 196.578 5.03129 197.096 4.5343C197.636 4.03731 198.317 3.78882 199.138 3.78882ZM201.44 28.8112H196.869V11.7299H201.44V28.8112Z" fill="#E4E7EC"/>
<path d="M190.069 15.7167V22.6205C190.069 24.0899 190.815 24.8245 192.306 24.8245H193.991V28.8113H191.852C189.583 28.8977 187.952 28.4655 186.958 27.5148C185.985 26.564 185.499 25.1271 185.499 23.2039V15.7167H182.906V11.7299H185.499V7.09497H190.069V11.7299H194.153V15.7167H190.069Z" fill="#E4E7EC"/>
<path d="M176.319 26.7043C175.671 27.5687 174.882 28.1845 173.953 28.5519C173.024 28.9192 171.943 29.0921 170.712 29.0704C169.134 29.0272 167.816 28.5843 166.757 27.7415C166.195 27.2662 165.753 26.7043 165.428 26.0561C165.126 25.3862 164.975 24.5975 164.975 23.69C164.996 22.7608 165.202 21.9397 165.59 21.2267C166.001 20.492 166.617 19.8869 167.438 19.4116C168.129 19.0442 168.907 18.7849 169.772 18.6337C170.658 18.4824 171.619 18.4068 172.656 18.4068H176.157C176.222 17.348 175.973 16.5593 175.411 16.0407C174.871 15.5005 174.104 15.2196 173.11 15.198C172.786 15.198 172.451 15.2196 172.105 15.2628C171.76 15.306 171.435 15.3924 171.133 15.5221C170.852 15.6517 170.604 15.8354 170.387 16.0731C170.193 16.2892 170.063 16.5593 169.999 16.8834H165.299C165.407 15.8462 165.688 14.9819 166.141 14.2904C166.617 13.5773 167.211 13.0047 167.924 12.5725C168.637 12.1404 169.426 11.8379 170.29 11.665C171.176 11.4705 172.084 11.3733 173.013 11.3733C173.531 11.3733 174.061 11.4057 174.601 11.4705C175.141 11.5137 175.671 11.6218 176.189 11.7947C176.708 11.9459 177.194 12.162 177.648 12.4429C178.123 12.7022 178.566 13.0479 178.977 13.4801C179.711 14.3228 180.165 15.2952 180.338 16.3972C180.533 17.4776 180.619 18.5364 180.597 19.5736V28.8112H176.416L176.319 26.7043ZM176.157 21.2591H172.818C172.494 21.2591 172.127 21.2915 171.716 21.3563C171.306 21.4211 170.949 21.54 170.647 21.7128C170.344 21.8857 170.085 22.1126 169.869 22.3935C169.674 22.6744 169.577 23.0201 169.577 23.4307C169.577 23.7764 169.642 24.0789 169.772 24.3382C169.923 24.5975 170.107 24.8136 170.323 24.9865C170.56 25.1594 170.841 25.2998 171.165 25.4079C171.49 25.4943 171.814 25.5375 172.138 25.5375C172.764 25.5591 173.348 25.4511 173.888 25.2134C174.45 24.9757 174.936 24.6408 175.347 24.2086C175.606 23.8629 175.8 23.4739 175.93 23.0417C176.081 22.588 176.157 21.9937 176.157 21.2591Z" fill="#E4E7EC"/>
<path d="M162.648 15.036L154.351 24.8246H162.648V28.8113H148.387V25.4728L156.619 15.6843H148.387V11.73H162.648V15.036Z" fill="#E4E7EC"/>
<path d="M142.892 3.78882C143.735 3.78882 144.416 4.03731 144.934 4.5343C145.453 5.03129 145.712 5.69034 145.712 6.51146C145.712 7.37579 145.453 8.05645 144.934 8.55344C144.416 9.02882 143.735 9.26651 142.892 9.26651C142.071 9.26651 141.39 9.02882 140.85 8.55344C140.332 8.05645 140.072 7.37579 140.072 6.51146C140.072 5.69034 140.332 5.03129 140.85 4.5343C141.39 4.03731 142.071 3.78882 142.892 3.78882ZM145.193 28.8112H140.623V11.7299H145.193V28.8112Z" fill="#E4E7EC"/>
<path d="M125.12 13.9015C126.503 12.2376 128.21 11.3949 130.241 11.3733C131.343 11.3517 132.316 11.5354 133.158 11.9243C134.001 12.2916 134.682 12.7994 135.2 13.4477C135.827 14.204 136.259 15.0899 136.497 16.1055C136.735 17.0995 136.853 18.2123 136.853 19.444V28.8111H132.251V19.8005C132.251 19.1955 132.186 18.6229 132.056 18.0827C131.948 17.5208 131.754 17.0455 131.473 16.6565C131.192 16.2459 130.814 15.9434 130.339 15.749C129.885 15.5545 129.366 15.4572 128.783 15.4572C128.048 15.4789 127.421 15.6409 126.903 15.9434C126.406 16.246 126.028 16.6349 125.768 17.1103C125.509 17.5641 125.325 18.0827 125.217 18.6661C125.131 19.2279 125.088 19.8005 125.088 20.3839V28.8111H120.518V11.7298H124.893L125.12 13.9015Z" fill="#E4E7EC"/>
<path d="M112.667 26.7043C112.018 27.5687 111.23 28.1845 110.3 28.5519C109.371 28.9192 108.291 29.0921 107.059 29.0704C105.482 29.0272 104.164 28.5843 103.105 27.7415C102.543 27.2662 102.1 26.7043 101.776 26.0561C101.474 25.3862 101.322 24.5975 101.322 23.69C101.344 22.7608 101.549 21.9397 101.938 21.2267C102.349 20.492 102.964 19.8869 103.786 19.4116C104.477 19.0442 105.255 18.7849 106.119 18.6337C107.005 18.4824 107.967 18.4068 109.004 18.4068H112.505C112.569 17.348 112.321 16.5593 111.759 16.0407C111.219 15.5005 110.452 15.2196 109.458 15.198C109.134 15.198 108.799 15.2196 108.453 15.2628C108.107 15.306 107.783 15.3924 107.481 15.5221C107.2 15.6517 106.951 15.8354 106.735 16.0731C106.541 16.2892 106.411 16.5593 106.346 16.8834H101.646C101.754 15.8462 102.035 14.9819 102.489 14.2904C102.964 13.5773 103.559 13.0047 104.272 12.5725C104.985 12.1404 105.774 11.8379 106.638 11.665C107.524 11.4705 108.431 11.3733 109.361 11.3733C109.879 11.3733 110.409 11.4057 110.949 11.4705C111.489 11.5137 112.018 11.6218 112.537 11.7947C113.056 11.9459 113.542 12.162 113.996 12.4429C114.471 12.7022 114.914 13.0479 115.324 13.4801C116.059 14.3228 116.513 15.2952 116.686 16.3972C116.88 17.4776 116.967 18.5364 116.945 19.5736V28.8112H112.764L112.667 26.7043ZM112.505 21.2591H109.166C108.842 21.2591 108.475 21.2915 108.064 21.3563C107.653 21.4211 107.297 21.54 106.994 21.7128C106.692 21.8857 106.433 22.1126 106.217 22.3935C106.022 22.6744 105.925 23.0201 105.925 23.4307C105.925 23.7764 105.99 24.0789 106.119 24.3382C106.271 24.5975 106.454 24.8136 106.67 24.9865C106.908 25.1594 107.189 25.2998 107.513 25.4079C107.837 25.4943 108.161 25.5375 108.485 25.5375C109.112 25.5591 109.695 25.4511 110.236 25.2134C110.797 24.9757 111.284 24.6408 111.694 24.2086C111.954 23.8629 112.148 23.4739 112.278 23.0417C112.429 22.588 112.505 21.9937 112.505 21.2591Z" fill="#E4E7EC"/>
<path d="M93.7153 27.0608C93.067 27.7955 92.2891 28.3141 91.3816 28.6166C90.474 28.9191 89.4909 29.0704 88.4321 29.0704C87.3733 29.0704 86.3361 28.9083 85.3205 28.5842C84.3265 28.2385 83.4622 27.6875 82.7275 26.9312C81.9064 26.0668 81.3337 25.0729 81.0096 23.9492C80.6855 22.8256 80.5234 21.6696 80.5234 20.4811C80.5234 17.672 81.3013 15.4248 82.8571 13.7393C83.527 13.0046 84.3913 12.432 85.4501 12.0215C86.5305 11.6109 87.6866 11.4164 88.9182 11.438C89.7177 11.3948 90.5821 11.5353 91.5112 11.8594C92.4404 12.1835 93.2399 12.7237 93.9098 13.48L94.3959 11.7298H98.3502V27.7415C98.3502 28.4329 98.307 29.1136 98.2206 29.7835C98.1558 30.4749 98.0369 31.134 97.8641 31.7606C97.6912 32.4089 97.4319 33.0247 97.0862 33.6081C96.6972 34.3212 96.2218 34.9262 95.66 35.4232C95.1198 35.9202 94.5148 36.3308 93.8449 36.6549C93.1751 37.0006 92.462 37.2491 91.7057 37.4004C90.9494 37.5516 90.1823 37.6272 89.4044 37.6272C88.4105 37.6272 87.4597 37.5084 86.5521 37.2707C85.6446 37.0546 84.8127 36.6873 84.0564 36.1687C83.3217 35.6717 82.7059 35.0343 82.2089 34.2564C81.7335 33.4785 81.4202 32.5493 81.2689 31.4689H86.1308C86.2172 31.9875 86.5629 32.4521 87.168 32.8626C87.773 33.2732 88.5077 33.4785 89.372 33.4785C90.3012 33.4785 91.0575 33.2948 91.6409 32.9275C92.2459 32.5601 92.6997 32.0739 93.0022 31.4689C93.3047 30.8639 93.4992 30.1724 93.5856 29.3945C93.6721 28.6166 93.7153 27.8387 93.7153 27.0608ZM89.4693 25.0188C90.1823 25.0188 90.809 24.8892 91.3492 24.6299C91.911 24.3706 92.3648 24.0249 92.7105 23.5927C93.0562 23.1389 93.3155 22.6203 93.4884 22.0369C93.6613 21.4319 93.7477 20.7944 93.7477 20.1246C93.7477 18.7849 93.3695 17.6828 92.6133 16.8185C91.8786 15.9326 90.8198 15.4788 89.4368 15.4572C88.7238 15.4572 88.0863 15.5868 87.5245 15.8461C86.9843 16.1054 86.5305 16.4512 86.1632 16.8833C85.8175 17.3155 85.5582 17.8233 85.3853 18.4067C85.2124 18.9901 85.126 19.6168 85.126 20.2866C85.126 20.9997 85.2124 21.6479 85.3853 22.2314C85.5798 22.7932 85.8607 23.2902 86.228 23.7223C86.5954 24.1329 87.0491 24.457 87.5893 24.6947C88.1295 24.9108 88.7562 25.0188 89.4693 25.0188Z" fill="#E4E7EC"/>
<path d="M72.637 13.8691C73.3284 13.048 74.0631 12.4322 74.841 12.0216C75.6405 11.611 76.5913 11.4058 77.6933 11.4058C77.9742 11.4058 78.2443 11.4166 78.5036 11.4382C78.7629 11.4598 79.0006 11.4922 79.2167 11.5354V15.749C78.7197 15.749 78.2119 15.7598 77.6933 15.7814C77.1963 15.7814 76.7209 15.8246 76.2672 15.9111C75.8134 15.9975 75.3704 16.138 74.9382 16.3324C74.5277 16.5053 74.1604 16.7646 73.8362 17.1103C73.3392 17.6722 73.0259 18.2772 72.8963 18.9254C72.7882 19.5737 72.7342 20.3084 72.7342 21.1295V28.8112H68.1641V11.7299H72.3777L72.637 13.8691Z" fill="#E4E7EC"/>
<path d="M56.5748 29.0704C53.809 29.0704 51.6805 28.2926 50.1896 26.7368C48.6986 25.1594 47.9531 22.9769 47.9531 20.1895C47.9531 18.8497 48.1476 17.6397 48.5365 16.5593C48.9471 15.4573 49.5089 14.5173 50.222 13.7394C50.9567 12.9615 51.8534 12.3781 52.9122 11.9891C53.9926 11.5786 55.2135 11.3733 56.5748 11.3733C57.9145 11.3733 59.1138 11.5786 60.1726 11.9891C61.253 12.3781 62.1606 12.9615 62.8952 13.7394C63.6515 14.5173 64.2241 15.4573 64.6131 16.5593C65.0236 17.6397 65.2289 18.8497 65.2289 20.1895C65.2289 22.9985 64.4726 25.181 62.9601 26.7368C61.4691 28.2926 59.3407 29.0704 56.5748 29.0704ZM56.5748 15.4573C55.1703 15.4573 54.1331 15.911 53.4632 16.8186C52.7934 17.7261 52.4584 18.8606 52.4584 20.2219C52.4584 21.6048 52.7934 22.75 53.4632 23.6576C54.1331 24.5651 55.1703 25.0189 56.5748 25.0189C57.9794 25.0189 59.0057 24.5651 59.654 23.6576C60.3022 22.75 60.6264 21.6048 60.6264 20.2219C60.6264 18.8606 60.3022 17.7261 59.654 16.8186C59.0057 15.911 57.9794 15.4573 56.5748 15.4573Z" fill="#E4E7EC"/>
<path d="M16.7101 3.64999C16.7101 2.3179 15.6247 1.2202 14.3065 1.41181C12.9388 1.61061 11.598 1.97876 10.3154 2.51002C8.28805 3.34978 6.44595 4.58063 4.89427 6.13231C3.3426 7.68399 2.11174 9.52609 1.27198 11.5535C0.432218 13.5808 -8.77351e-07 15.7537 -9.29687e-07 17.9481C-9.82023e-07 20.1425 0.432218 22.3154 1.27198 24.3428C2.11174 26.3702 3.3426 28.2123 4.89427 29.7639C6.44595 31.3156 8.28805 32.5465 10.3154 33.3862C12.3428 34.226 14.5157 34.6582 16.7101 34.6582L16.7101 26.6374C15.569 26.6374 14.4391 26.4126 13.3849 25.9759C12.3306 25.5393 11.3727 24.8992 10.5659 24.0924C9.75899 23.2855 9.11895 22.3276 8.68227 21.2734C8.2456 20.2191 8.02084 19.0892 8.02084 17.9481C8.02084 16.807 8.2456 15.6771 8.68227 14.6229C9.11895 13.5687 9.75899 12.6108 10.5659 11.8039C11.3727 10.997 12.3306 10.357 13.3849 9.92031C13.6936 9.79242 14.0089 9.68271 14.329 9.59149C15.6101 9.22646 16.7101 8.17901 16.7101 6.84693L16.7101 3.64999Z" fill="#E4E7EC"/>
<path d="M30.7834 17.9482C32.1154 17.9482 33.2132 19.0336 33.0215 20.3518C32.8227 21.7195 32.4546 23.0603 31.9233 24.3429C31.0836 26.3703 29.8527 28.2124 28.301 29.7641C26.7494 31.3157 24.9073 32.5466 22.8799 33.3864C20.8525 34.2261 18.6796 34.6583 16.4852 34.6583L16.4852 26.6375C17.6263 26.6375 18.7562 26.4127 19.8105 25.9761C20.8647 25.5394 21.8226 24.8993 22.6294 24.0925C23.4363 23.2856 24.0764 22.3277 24.513 21.2735C24.6409 20.9647 24.7506 20.6495 24.8419 20.3294C25.2069 19.0483 26.2543 17.9482 27.5864 17.9482L30.7834 17.9482Z" fill="#E4E7EC"/>
<path d="M33.6017 1.24536C34.9338 1.24536 36.0315 2.33073 35.8399 3.64896C35.6411 5.01663 35.273 6.35746 34.7417 7.64004C33.9019 9.6674 32.6711 11.5095 31.1194 13.0612C29.5677 14.6129 27.7256 15.8437 25.6983 16.6835C24.4157 17.2147 23.0749 17.5829 21.7072 17.7817C20.389 17.9733 19.3036 16.8756 19.3036 15.5435L19.3036 12.3466C19.3036 11.0145 20.4036 9.96703 21.6847 9.602C22.0048 9.51079 22.3201 9.40107 22.6288 9.27318C23.683 8.83651 24.6409 8.19646 25.4478 7.38959C26.2547 6.58272 26.8947 5.62482 27.3314 4.5706C27.4593 4.26184 27.569 3.94659 27.6602 3.62647C28.0252 2.34538 29.0727 1.24536 30.4048 1.24536L33.6017 1.24536Z" fill="#E4E7EC"/>
</svg>
