<svg width="197" height="40" viewBox="0 0 197 40" fill="none" xmlns="http://www.w3.org/2000/svg">
<path d="M183.189 20.7544H190.32C190.255 19.1662 189.218 17.6104 186.754 17.6104C184.518 17.6104 183.286 19.2958 183.189 20.7544ZM190.741 24.9032L194.339 25.9728C193.529 28.7278 191 31.0291 187.078 31.0291C182.703 31.0291 178.846 27.8851 178.846 22.5047C178.846 17.4159 182.606 14.1099 186.69 14.1099C191.616 14.1099 194.566 17.2539 194.566 22.375C194.566 22.9909 194.501 23.6391 194.501 23.7039H183.092C183.189 25.8107 184.972 27.3341 187.111 27.3341C189.12 27.3341 190.222 26.3293 190.741 24.9032Z" fill="#E4E7EC"/>
<path d="M164.457 26.1024L168.152 25.2921C168.249 26.5562 169.189 27.7231 171.069 27.7231C172.495 27.7231 173.176 26.9776 173.176 26.1349C173.176 25.4218 172.69 24.8384 171.458 24.5791L169.351 24.0929C166.272 23.4122 164.878 21.5647 164.878 19.3283C164.878 16.476 167.407 14.1099 170.842 14.1099C175.38 14.1099 176.903 16.9946 177.098 18.7124L173.5 19.5227C173.37 18.5828 172.69 17.3835 170.875 17.3835C169.74 17.3835 168.833 18.0642 168.833 18.9717C168.833 19.7496 169.416 20.2358 170.291 20.3979L172.56 20.8841C175.704 21.5323 177.292 23.4446 177.292 25.7783C177.292 28.3713 175.283 31.0291 171.102 31.0291C166.305 31.0291 164.652 27.9175 164.457 26.1024Z" fill="#E4E7EC"/>
<path d="M161.851 30.543H157.54V14.5961H161.851V30.543ZM157.021 9.37773C157.021 7.88676 158.221 6.6875 159.679 6.6875C161.17 6.6875 162.337 7.88676 162.337 9.37773C162.337 10.8039 161.17 12.0031 159.679 12.0031C158.221 12.0031 157.021 10.8039 157.021 9.37773Z" fill="#E4E7EC"/>
<path d="M155.155 14.5311V18.8744C154.669 18.7772 154.248 18.7447 153.859 18.7447C151.655 18.7447 149.742 19.8144 149.742 23.2501V30.5428H145.432V14.596H149.613V16.9621C150.585 14.8553 152.789 14.4663 154.151 14.4663C154.507 14.4663 154.831 14.4987 155.155 14.5311Z" fill="#E4E7EC"/>
<path d="M130.545 36.7013H126.234V14.596H130.416V16.5408C131.129 15.3091 132.911 14.2395 135.31 14.2395C139.977 14.2395 142.667 17.8049 142.667 22.5371C142.667 27.3665 139.653 30.9319 135.148 30.9319C132.944 30.9319 131.323 30.0567 130.545 28.9871V36.7013ZM138.421 22.5695C138.421 19.7496 136.671 18.0966 134.467 18.0966C132.263 18.0966 130.48 19.7496 130.48 22.5695C130.48 25.3894 132.263 27.0748 134.467 27.0748C136.671 27.0748 138.421 25.4218 138.421 22.5695Z" fill="#E4E7EC"/>
<path d="M123.849 14.5311V18.8744C123.363 18.7772 122.941 18.7447 122.552 18.7447C120.348 18.7447 118.436 19.8144 118.436 23.2501V30.5428H114.125V14.596H118.306V16.9621C119.279 14.8553 121.483 14.4663 122.844 14.4663C123.2 14.4663 123.525 14.4987 123.849 14.5311Z" fill="#E4E7EC"/>
<path d="M100.003 20.7544H107.134C107.069 19.1662 106.032 17.6104 103.569 17.6104C101.332 17.6104 100.101 19.2958 100.003 20.7544ZM107.555 24.9032L111.153 25.9728C110.343 28.7278 107.815 31.0291 103.893 31.0291C99.5172 31.0291 95.6602 27.8851 95.6602 22.5047C95.6602 17.4159 99.42 14.1099 103.504 14.1099C108.431 14.1099 111.38 17.2539 111.38 22.375C111.38 22.9909 111.315 23.6391 111.315 23.7039H99.9062C100.003 25.8107 101.786 27.3341 103.925 27.3341C105.935 27.3341 107.037 26.3293 107.555 24.9032Z" fill="#E4E7EC"/>
<path d="M90.794 9.83154V14.5962H94.0028V18.4208H90.794V25.0978C90.794 26.4915 91.4422 26.9453 92.6739 26.9453C93.1925 26.9453 93.7759 26.8805 94.0028 26.8156V30.381C93.6139 30.5431 92.836 30.7699 91.5719 30.7699C88.4603 30.7699 86.5156 28.9224 86.5156 25.8433V18.4208H83.6309V14.5962H84.4412C86.1266 14.5962 86.9045 13.4941 86.9045 12.068V9.83154H90.794Z" fill="#E4E7EC"/>
<path d="M71.5101 21.3704V30.5431H67.1992V14.5962H71.3804V16.5733C72.3528 14.9203 74.2651 14.1748 75.983 14.1748C79.9373 14.1748 81.7524 16.9947 81.7524 20.4952V30.5431H77.4415V21.2407C77.4415 19.458 76.5664 18.0643 74.492 18.0643C72.6121 18.0643 71.5101 19.5228 71.5101 21.3704Z" fill="#E4E7EC"/>
<path d="M53.0757 20.7544H60.2064C60.1416 19.1662 59.1044 17.6104 56.641 17.6104C54.4046 17.6104 53.1729 19.2958 53.0757 20.7544ZM60.6278 24.9032L64.2255 25.9728C63.4152 28.7278 60.8871 31.0291 56.9652 31.0291C52.5895 31.0291 48.7324 27.8851 48.7324 22.5047C48.7324 17.4159 52.4923 14.1099 56.5762 14.1099C61.5029 14.1099 64.4524 17.2539 64.4524 22.375C64.4524 22.9909 64.3876 23.6391 64.3876 23.7039H52.9784C53.0757 25.8107 54.8584 27.3341 56.9976 27.3341C59.0071 27.3341 60.1092 26.3293 60.6278 24.9032Z" fill="#E4E7EC"/>
<g clip-path="url(#clip0_3778_21090)">
<path fill-rule="evenodd" clip-rule="evenodd" d="M0.941441 27.1801C0.941441 28.0668 1.83949 28.6711 2.66088 28.3372L13.6364 23.8756C14.1072 23.6842 14.4151 23.2267 14.4151 22.7185L14.4151 17.6803C14.4151 17.1721 14.723 16.7145 15.1938 16.5231L26.2096 12.0452C26.6804 11.8538 26.9883 11.3963 26.9883 10.8881L26.9883 4.98113C26.9883 4.29129 26.4291 3.73207 25.7392 3.73207L14.7637 3.73207C14.0738 3.73207 13.5146 4.29129 13.5146 4.98113L13.5146 14.3134C13.5146 15.0033 12.9554 15.5625 12.2655 15.5625L2.19051 15.5625C1.50067 15.5625 0.941442 16.1217 0.941442 16.8115L0.941441 27.1801Z" fill="#E4E7EC"/>
<path fill-rule="evenodd" clip-rule="evenodd" d="M36.5195 12.2804C36.5195 11.3937 35.6214 10.7893 34.8001 11.1232L23.8245 15.5848C23.3537 15.7762 23.0458 16.2338 23.0458 16.742V21.78C23.0458 22.2882 22.7379 22.7457 22.2671 22.9371L11.2513 27.415C10.7806 27.6064 10.4727 28.064 10.4727 28.5722V34.4791C10.4727 35.1689 11.0319 35.7282 11.7217 35.7282H22.6973C23.3871 35.7282 23.9463 35.1689 23.9463 34.4791V25.147C23.9463 24.4572 24.5056 23.898 25.1954 23.898H35.2704C35.9603 23.898 36.5195 23.3387 36.5195 22.6489V12.2804Z" fill="#E4E7EC"/>
</g>
<defs>
<clipPath id="clip0_3778_21090">
<rect width="36.9141" height="36.9141" fill="white" transform="translate(0.277344 2.2749)"/>
</clipPath>
</defs>
</svg>
